<svg width="639" height="255" viewBox="0 0 639 255" fill="none" xmlns="http://www.w3.org/2000/svg">
<path d="M547.928 158.34C542.104 162.465 535.977 166.53 529.546 170.534L529 167.986L546.29 155.974C552.235 151.727 556.785 149.604 559.94 149.604C563.095 149.604 564.672 150.939 564.672 153.608C564.672 157.612 561.881 162.405 556.3 167.986L559.394 166.166C576.017 155.367 586.391 149.968 590.516 149.968C594.641 149.968 596.704 151.06 596.704 153.244C596.704 155.671 594.763 159.493 590.88 164.71C604.712 155.125 615.814 150.332 624.186 150.332C627.462 150.332 629.1 151.727 629.1 154.518C629.1 157.309 627.887 160.221 625.46 163.254C623.033 166.166 620.364 168.714 617.452 170.898C609.687 176.479 605.804 179.998 605.804 181.454C605.804 182.303 606.471 182.728 607.806 182.728C609.262 182.728 611.628 182 614.904 180.544C618.18 179.088 621.092 177.632 623.64 176.176C626.188 174.599 629.221 172.718 632.74 170.534C636.38 168.229 638.321 167.015 638.564 166.894L638.928 169.624C622.548 180.544 611.082 186.004 604.53 186.004C601.375 186.004 599.798 184.487 599.798 181.454C599.798 179.391 601.072 176.965 603.62 174.174C606.289 171.262 609.141 168.593 612.174 166.166C620.546 159.857 624.732 155.671 624.732 153.608C624.732 153.001 624.065 152.698 622.73 152.698C618.241 152.698 611.567 155.125 602.71 159.978C593.853 164.831 584.025 172.718 573.226 183.638C572.498 184.366 570.921 184.73 568.494 184.73C566.189 184.73 565.036 184.184 565.036 183.092C565.036 182.607 567.159 180.362 571.406 176.358C584.389 164.103 590.88 156.641 590.88 153.972C590.88 153.244 590.455 152.88 589.606 152.88C586.815 152.88 580.688 155.974 571.224 162.162C561.881 168.229 552.296 175.327 542.468 183.456C541.012 184.305 539.859 184.73 539.01 184.73C535.249 184.73 533.368 184.305 533.368 183.456C533.368 182.971 535.006 181.272 538.282 178.36C541.679 175.448 546.169 171.08 551.75 165.256C557.453 159.311 560.304 155.185 560.304 152.88C560.304 152.395 560.001 152.152 559.394 152.152C557.21 152.152 553.388 154.215 547.928 158.34Z" fill="black"/>
<path d="M498.866 155.61L507.42 154.518C508.876 154.518 510.029 155.003 510.878 155.974C511.728 156.945 512.152 158.097 512.152 159.432C512.152 162.101 510.272 165.013 506.51 168.168C502.749 171.323 498.988 174.295 495.226 177.086C491.586 179.877 489.766 182.121 489.766 183.82C489.766 184.791 490.555 185.276 492.132 185.276C497.35 185.276 505.297 182.243 515.974 176.176C520.585 173.628 525.499 170.534 530.716 166.894L531.08 169.624C526.955 172.293 522.344 175.023 517.248 177.814C514.336 179.634 510.09 181.697 504.508 184.002C498.927 186.429 494.316 187.642 490.676 187.642C487.036 187.642 485.216 186.004 485.216 182.728C485.216 178.967 487.158 175.448 491.04 172.172C494.923 168.775 498.745 165.984 502.506 163.8C506.389 161.495 508.33 159.735 508.33 158.522C508.33 158.158 507.906 157.976 507.056 157.976L496.864 158.886C494.923 158.886 493.164 158.704 491.586 158.34C485.762 162.465 479.635 166.53 473.204 170.534L472.658 167.986L489.948 155.974C490.07 153.669 491.526 151.363 494.316 149.058C497.107 146.753 499.473 145.6 501.414 145.6C503.356 145.6 504.326 146.146 504.326 147.238C504.326 148.209 503.174 149.483 500.868 151.06C498.563 152.637 497.41 153.79 497.41 154.518C497.41 155.246 497.896 155.61 498.866 155.61Z" fill="black"/>
<path d="M421.611 182.91C430.347 182.91 438.84 178.542 447.091 169.806V169.624C447.091 163.8 449.882 158.34 455.463 153.244C455.099 151.91 454.068 151.242 452.369 151.242C443.39 151.242 435.443 154.64 428.527 161.434C421.611 168.108 418.153 173.992 418.153 179.088C418.153 181.636 419.306 182.91 421.611 182.91ZM449.821 148.512C456.252 148.512 459.467 150.636 459.467 154.882C459.467 158.522 457.222 162.89 452.733 167.986V169.442C452.733 173.446 454.492 175.448 458.011 175.448C460.195 175.448 462.622 174.538 465.291 172.718L474.209 166.894L474.573 169.624L466.201 174.902C462.318 177.45 458.496 178.724 454.735 178.724C451.095 178.724 448.668 176.844 447.455 173.082C437.748 181.697 428.527 186.004 419.791 186.004C414.574 186.004 411.965 183.517 411.965 178.542C411.965 172.233 415.666 165.681 423.067 158.886C430.468 151.97 439.386 148.512 449.821 148.512Z" fill="black"/>
<path d="M314.879 250.068C314.879 251.403 315.607 252.07 317.063 252.07C321.31 252.07 327.497 247.459 335.627 238.238C343.756 229.017 351.461 218.521 358.741 206.752C366.021 194.983 370.935 185.215 373.483 177.45C373.119 176.965 372.937 176.358 372.937 175.63C356.071 193.587 342.179 209.482 331.259 223.314C320.339 237.146 314.879 246.064 314.879 250.068ZM481.955 81.5361C481.955 80.6868 481.348 80.2621 480.135 80.2621C475.16 80.2621 463.573 88.3308 445.373 104.468C427.294 120.484 407.335 139.776 385.495 162.344C403.695 150.696 424.322 135.347 447.375 116.298C470.428 97.2488 481.955 85.6614 481.955 81.5361ZM377.487 174.902C378.336 178.785 381.187 180.726 386.041 180.726C393.2 180.726 403.513 176.115 416.981 166.894L417.345 169.624C403.998 178.603 392.957 183.092 384.221 183.092C380.217 183.092 377.244 182.121 375.303 180.18C371.056 189.887 365.536 200.2 358.741 211.12C351.946 222.161 344.424 232.111 336.173 240.968C327.801 249.947 320.764 254.436 315.061 254.436C311.664 254.436 309.965 252.98 309.965 250.068C309.965 243.516 317.669 230.655 333.079 211.484C348.488 192.435 365.96 173.082 385.495 153.426C405.151 133.649 424.443 116.055 443.371 100.646C462.42 85.1154 475.1 77.3501 481.409 77.3501C484.2 77.3501 485.595 78.2601 485.595 80.0801C485.595 84.2054 478.861 92.3348 465.393 104.468C452.046 116.601 437.062 128.795 420.439 141.05C403.938 153.183 390.287 162.405 379.489 168.714L379.307 168.896C379.064 169.988 378.458 171.99 377.487 174.902Z" fill="black"/>
<path d="M369.064 150.878C369.064 149.907 368.093 149.422 366.152 149.422C364.211 149.422 360.267 151.303 354.322 155.064C348.377 158.704 343.341 162.647 339.216 166.894C347.345 165.559 354.322 163.133 360.146 159.614C366.091 155.974 369.064 153.062 369.064 150.878ZM333.392 176.54C333.392 180.059 335.819 181.818 340.672 181.818C349.893 181.818 361.359 176.843 375.07 166.894L375.434 169.624C361.117 179.695 348.862 184.73 338.67 184.73C331.39 184.73 327.75 181.697 327.75 175.63C327.75 169.563 332.239 163.254 341.218 156.702C350.318 150.15 359.661 146.874 369.246 146.874C372.279 146.874 373.796 147.784 373.796 149.604C373.796 152.516 370.399 156.035 363.604 160.16C356.931 164.164 348.134 167.137 337.214 169.078C334.666 171.99 333.392 174.477 333.392 176.54Z" fill="black"/>
<path d="M286.098 148.694C288.646 148.694 289.92 150.09 289.92 152.88C289.92 155.55 287.979 159.493 284.096 164.71C297.928 155.125 309.03 150.332 317.402 150.332C320.678 150.332 322.316 151.728 322.316 154.518C322.316 157.309 321.103 160.221 318.676 163.254C316.25 166.166 313.58 168.714 310.668 170.898C302.903 176.48 299.02 179.998 299.02 181.454C299.02 182.304 299.688 182.728 301.022 182.728C302.478 182.728 304.844 182 308.12 180.544C311.396 179.088 314.308 177.632 316.856 176.176C319.404 174.599 322.438 172.718 325.956 170.534C329.596 168.229 331.538 167.016 331.78 166.894L332.144 169.624C315.764 180.544 304.298 186.004 297.746 186.004C294.592 186.004 293.014 184.488 293.014 181.454C293.014 179.392 294.288 176.965 296.836 174.174C299.506 171.262 302.357 168.593 305.39 166.166C313.762 159.857 317.948 155.671 317.948 153.608C317.948 153.002 317.281 152.698 315.946 152.698C311.457 152.698 304.784 155.125 295.926 159.978C287.069 164.832 277.241 172.718 266.442 183.638C265.714 184.366 264.319 184.73 262.256 184.73C260.315 184.73 259.344 184.184 259.344 183.092C259.344 182.728 263.53 178.239 271.902 169.624C280.274 161.01 284.46 155.428 284.46 152.88C284.46 152.274 284.036 151.97 283.186 151.97C282.458 151.97 280.82 152.759 278.272 154.336C275.846 155.914 272.024 158.462 266.806 161.98C261.71 165.378 257.342 168.229 253.702 170.534L253.156 167.986C254.976 166.773 257.464 165.074 260.618 162.89C263.773 160.706 266.382 158.947 268.444 157.612C270.507 156.156 272.752 154.64 275.178 153.062C279.91 150.15 283.55 148.694 286.098 148.694Z" fill="black"/>
<path d="M261.353 133.406C261.353 135.105 260.382 136.743 258.441 138.32C256.5 139.898 254.68 140.686 252.981 140.686C251.404 140.686 250.615 140.019 250.615 138.684C250.615 137.35 251.586 135.833 253.527 134.134C255.468 132.314 257.228 131.404 258.805 131.404C260.504 131.404 261.353 132.072 261.353 133.406ZM245.883 153.062C229.503 167.865 221.313 177.147 221.313 180.908C221.313 182.122 222.162 182.728 223.861 182.728C225.438 182.728 227.865 182 231.141 180.544C234.417 179.088 237.329 177.632 239.877 176.176C242.425 174.599 245.458 172.718 248.977 170.534C252.617 168.229 254.558 167.016 254.801 166.894L255.165 169.624C249.584 173.264 243.214 176.904 236.055 180.544C228.896 184.184 223.497 186.004 219.857 186.004C216.096 186.004 214.215 184.488 214.215 181.454C214.215 178.906 216.399 175.084 220.767 169.988C225.135 164.771 229.503 160.221 233.871 156.338L240.423 150.514C241.03 150.029 242.182 149.847 243.881 149.968C245.58 150.09 246.429 150.696 246.429 151.788C246.429 152.274 246.247 152.698 245.883 153.062Z" fill="black"/>
<path d="M32.578 186.914C48.594 186.914 64.792 182.667 81.172 174.174C50.96 165.923 32.3353 161.798 25.298 161.798C18.2607 161.798 13.1647 162.769 10.01 164.71C6.97667 166.651 5.46 169.321 5.46 172.718C5.46 175.994 7.88667 179.149 12.74 182.182C17.7147 185.337 24.3273 186.914 32.578 186.914ZM127.764 180.544C145.357 184.305 159.007 186.186 168.714 186.186C178.542 186.186 186.914 184.609 193.83 181.454C200.746 178.178 204.204 174.538 204.204 170.534C204.204 167.622 202.081 165.195 197.834 163.254C193.587 161.191 187.399 160.16 179.27 160.16C166.409 160.16 155.61 162.041 146.874 165.802C138.138 169.563 131.768 174.477 127.764 180.544ZM211.848 62.426C203.597 70.07 193.405 80.444 181.272 93.548C169.26 106.531 160.463 115.873 154.882 121.576C156.095 121.697 157.976 121.758 160.524 121.758C170.473 121.758 181.211 119.21 192.738 114.114C204.386 109.018 214.639 102.951 223.496 95.914C232.475 88.8767 239.937 81.5967 245.882 74.074C251.949 66.43 254.982 60.1207 254.982 55.146C254.982 49.2007 250.675 46.228 242.06 46.228C233.445 46.228 223.375 51.6273 211.848 62.426ZM197.652 36.946C197.652 28.8167 191.039 24.752 177.814 24.752C170.534 24.752 163.011 26.5113 155.246 30.03C147.602 33.4273 141.05 37.9167 135.59 43.498C130.13 49.0793 125.701 55.2673 122.304 62.062C118.907 68.8567 116.905 75.5907 116.298 82.264C119.453 82.5067 122.001 82.628 123.942 82.628C134.013 82.628 143.78 81.0507 153.244 77.896C162.708 74.7413 170.595 70.8587 176.904 66.248C183.213 61.516 188.249 56.5413 192.01 51.324C195.771 45.9853 197.652 41.1927 197.652 36.946ZM92.274 172.172C101.131 174.356 111.687 176.904 123.942 179.816C127.946 173.264 134.741 167.986 144.326 163.982C154.033 159.857 166.287 157.794 181.09 157.794C189.826 157.794 196.742 159.129 201.838 161.798C207.055 164.467 209.664 167.683 209.664 171.444C209.664 176.055 205.721 180.119 197.834 183.638C190.069 187.157 179.877 188.916 167.258 188.916C154.761 188.916 140.807 187.46 125.398 184.548C124.185 187.46 123.578 190.615 123.578 194.012C123.578 201.899 127.4 208.633 135.044 214.214C142.809 219.917 153.547 222.768 167.258 222.768L167.986 224.224C165.802 224.467 164.164 224.588 163.072 224.588C150.089 224.588 139.655 221.433 131.768 215.124C124.003 208.936 120.12 201.595 120.12 193.102C120.12 189.826 120.727 186.793 121.94 184.002C109.928 181.454 97.916 178.603 85.904 175.448C67.4613 184.669 49.0793 189.28 30.758 189.28C21.658 189.28 14.2567 187.46 8.554 183.82C2.85133 180.301 0 176.54 0 172.536C0 168.532 2.184 165.317 6.552 162.89C10.92 160.342 17.4113 159.068 26.026 159.068C34.762 159.068 55.146 163.011 87.178 170.898C103.922 161.191 122.911 145.297 144.144 123.214C133.588 120.909 125.641 116.298 120.302 109.382C114.963 102.345 112.294 94.0333 112.294 84.448V84.084C102.345 82.992 94.9433 80.1407 90.09 75.53C85.358 70.9193 82.992 65.2167 82.992 58.422C82.992 46.8953 88.9373 35.126 100.828 23.114C112.719 10.9807 126.854 3.276 143.234 0L143.78 1.638C127.4 5.03533 113.629 12.376 102.466 23.66C91.3033 34.8227 85.722 45.864 85.722 56.784C85.722 63.2147 87.906 68.6747 92.274 73.164C96.642 77.532 103.315 80.444 112.294 81.9C112.658 74.62 114.539 67.4613 117.936 60.424C121.333 53.2653 125.823 46.774 131.404 40.95C137.107 35.0047 144.265 30.212 152.88 26.572C161.495 22.932 170.109 21.112 178.724 21.112C194.497 21.112 202.384 26.026 202.384 35.854C202.384 40.586 200.382 45.8033 196.378 51.506C192.374 57.0873 186.975 62.3653 180.18 67.34C173.507 72.1933 165.013 76.3187 154.7 79.716C144.508 82.992 133.77 84.63 122.486 84.63C119.574 84.63 117.451 84.5693 116.116 84.448V86.268C116.116 94.8827 118.603 102.284 123.578 108.472C128.674 114.539 136.379 118.543 146.692 120.484C150.575 116.48 156.277 110.353 163.8 102.102C171.444 93.8513 177.207 87.6633 181.09 83.538C185.094 79.4127 190.311 74.3167 196.742 68.25C203.173 62.1833 208.572 57.694 212.94 54.782C224.467 47.2593 234.719 43.498 243.698 43.498C255.225 43.498 260.988 47.32 260.988 54.964C260.988 60.5453 257.833 67.34 251.524 75.348C245.336 83.356 237.51 91 228.046 98.28C218.582 105.56 207.48 111.809 194.74 117.026C182.121 122.122 170.049 124.67 158.522 124.67C155.61 124.67 153.487 124.609 152.152 124.488C130.433 146.207 110.474 162.101 92.274 172.172Z" fill="black"/>
</svg>
